HIERARCHY
ROOT Hips
{
	OFFSET 0.00000 0.00000 0.00000
	CHANNELS 6 Xposition Yposition Zposition Zrotation Yrotation Xrotation 
	JOINT LHipJoint
	{
		OFFSET 0 0 0
		CHANNELS 3 Zrotation Yrotation Xrotation
		JOINT LeftHip
		{
			OFFSET 1.64549 -1.70879 0.84566
			CHANNELS 3 Zrotation Yrotation Xrotation
			JOINT LeftKnee
			{
				OFFSET 2.24963 -6.18082 0.00000
				CHANNELS 3 Zrotation Yrotation Xrotation
				JOINT LeftAnkle
				{
					OFFSET 2.71775 -7.46697 0.00000
					CHANNELS 3 Zrotation Yrotation Xrotation
					JOINT LeftToe
					{
						OFFSET 0.18768 -0.51564 2.24737
						CHANNELS 3 Zrotation Yrotation Xrotation
						End Site
						{
							OFFSET 0.00000 -0.00000 1.15935
						}
					}
				}
			}
		}
	}
	JOINT RHipJoint
	{
		OFFSET 0 0 0
		CHANNELS 3 Zrotation Yrotation Xrotation
		JOINT RightHip
		{
			OFFSET -1.58830 -1.70879 0.84566
			CHANNELS 3 Zrotation Yrotation Xrotation
			JOINT RightKnee
			{
				OFFSET -2.25006 -6.18201 0.00000
				CHANNELS 3 Zrotation Yrotation Xrotation
				JOINT RightAnkle
				{
					OFFSET -2.72829 -7.49593 0.00000
					CHANNELS 3 Zrotation Yrotation Xrotation
					JOINT RightToe
					{
						OFFSET -0.21541 -0.59185 2.10643
						CHANNELS 3 Zrotation Yrotation Xrotation
						End Site
						{
							OFFSET -0.00000 -0.00000 1.09838
						}
					}
				}
			}
		}
	}
	JOINT lowerback
	{
		OFFSET 0 0 0
		CHANNELS 3 Zrotation Yrotation Xrotation
		JOINT Chest
		{
			OFFSET 0.03142 2.10496 -0.11038
			CHANNELS 3 Zrotation Yrotation Xrotation
			JOINT Chest2
			{
				OFFSET -0.01863 2.10897 -0.06956
				CHANNELS 3 Zrotation Yrotation Xrotation
				JOINT lowerneck
				{
					OFFSET 0 0 0
					CHANNELS 3 Zrotation Yrotation Xrotation
					JOINT Neck
					{
						OFFSET -0.02267 1.73238 0.00451
						CHANNELS 3 Zrotation Yrotation Xrotation
						JOINT Head
						{
							OFFSET -0.05808 1.54724 -0.61749
							CHANNELS 3 Zrotation Yrotation Xrotation
							End Site
							{
								OFFSET -0.01396 1.71468 -0.21082
							}
						}
					}
				}
				JOINT LeftCollar
				{
					OFFSET 0 0 0
					CHANNELS 3 Zrotation Yrotation Xrotation
					JOINT LeftShoulder
					{
						OFFSET 3.44898 0.50298 0.21920
CHANNELS 3 Zrotation Xrotation Yrotation
						JOINT LeftElbow
						{
OFFSET 0 -5.419170 -0.000000
CHANNELS 3 Zrotation Xrotation Yrotation
							JOINT LeftWrist
							{
OFFSET 0 -2.443730 0.000000
CHANNELS 3 Zrotation Xrotation Yrotation
								JOINT lhand
								{
									OFFSET 0 0 0
CHANNELS 3 Zrotation Xrotation Yrotation
									JOINT LFingers
									{
OFFSET 0 -0.727500 0.000000
CHANNELS 3 Zrotation Xrotation Yrotation
										End Site
										{
OFFSET 0 -0.586530 0.000000
										}
									}
								}
								JOINT LThumb
								{
OFFSET 0 0.000000 0.000000
CHANNELS 3 Zrotation Xrotation Yrotation
									End Site
									{
OFFSET 0 -0.595490 0.595490
									}
								}
							}
						}
					}
				}
				JOINT RightCollar
				{
					OFFSET 0 0 0
					CHANNELS 3 Zrotation Yrotation Xrotation
					JOINT RightShoulder
					{
						OFFSET -3.23015 0.55830 0.31051
CHANNELS 3 Zrotation Xrotation Yrotation
						JOINT RightElbow
						{
OFFSET 0 -5.589760 0.000140
CHANNELS 3 Zrotation Xrotation Yrotation
							JOINT RightWrist
							{
OFFSET 0 -2.480600 0.000000
CHANNELS 3 Zrotation Xrotation Yrotation
								JOINT rhand
								{
									OFFSET 0 0 0
CHANNELS 3 Zrotation Xrotation Yrotation
									JOINT RFingers
									{
OFFSET 0 -0.816010 0.000000
CHANNELS 3 Zrotation Xrotation Yrotation
										End Site
										{
OFFSET 0 -0.657890 0.000000
										}
									}
								}
								JOINT RThumb
								{
OFFSET 0 0.000000 0.000000
CHANNELS 3 Zrotation Xrotation Yrotation
									End Site
									{
OFFSET 0 -0.667930 0.667930
									}
								}
							}
						}
					}
				}
			}
		}
	}
}
MOTION
Frames: 8
Frame Time: 0.008333333333333333
-2.883500 17.155700 15.932300 -179.665000 -18.950600 -154.737000 0.000000 0.000000 0.000000 -25.033000 -9.160300 -44.647100 2.548900 9.926200 28.738100 2.189400 13.199900 -35.208000 0.965200 6.255300 17.527100 0.000000 0.000000 0.000000 23.843600 1.732900 -1.768100 0.000000 -0.000000 0.000000 -0.653500 -20.874200 -33.703100 -0.494500 -4.508500 12.511800 -0.024600 2.375000 -10.132100 -0.192400 2.343600 -8.116600 0.007100 0.813900 -2.770300 -0.546000 2.304600 -13.125300 0.658900 -1.491700 42.253800 -0.359000 -2.119700 17.926700 0.000000 0.000000 0.000000 6.965300 14.900300 9.721100 11.675100 -19.315700 1.993500 20.194000 13.592600 -20.277700 0.000000 0.000000 0.000000 -7.125000 0.000000 0.000000 -8.380800 51.278600 1.303900 0.000000 0.000000 0.000000 -6.773100 9.866600 -6.120400 1.205500 2.086800 -0.022000 -14.092000 29.749500 -5.274900 0.000000 0.000000 0.000000 7.125000 0.000000 -0.000000 9.377300 24.543500 4.695100
-2.978625 17.157599 15.825744 -179.453808 -18.998707 -154.906649 0.000000 0.000000 0.000000 -24.923963 -9.256949 -44.108277 2.618148 10.049422 29.137094 2.387045 12.691379 -35.900685 0.923060 6.120218 17.133918 0.000000 0.000000 0.000000 24.296702 1.505813 -0.979782 0.000000 0.000000 0.000000 -0.080052 -22.907479 -32.783017 -0.322183 -3.640358 10.067886 0.150009 2.174506 -10.228866 -0.003681 2.074209 -8.016377 0.088673 0.680508 -2.607223 -0.771668 2.649237 -13.506213 0.734096 -0.947939 42.560334 -0.194899 -1.943050 18.207312 0.000000 0.000000 0.000000 6.834794 14.926872 9.510710 11.624105 -19.238368 1.976795 20.107092 14.314982 -19.697666 0.000000 0.000000 0.000000 -7.125000 0.000000 0.000000 -8.281915 50.666097 1.162770 0.000000 0.000000 0.000000 -6.882706 10.369855 -5.482363 1.065085 1.844029 -0.017161 -13.247654 30.258655 -5.200521 0.000000 0.000000 0.000000 7.125000 0.000000 0.000000 10.007599 24.637415 4.997525
-3.081373 17.149786 15.691993 -178.677294 -18.359834 -156.225359 0.000000 0.000000 0.000000 -24.373458 -8.607876 -42.723983 2.746465 10.272747 29.864572 2.820949 11.628938 -37.432582 1.011439 6.395000 17.936339 0.000000 0.000000 0.000000 25.155068 1.541536 1.336167 0.000000 0.000000 0.000000 0.570209 -24.843234 -31.406757 -0.242339 -3.167579 8.745741 0.615152 2.459665 -10.242095 0.176099 2.514139 -7.322993 0.058491 0.931716 -1.860910 -0.734691 2.495614 -13.322341 0.714228 -1.194243 42.423518 -0.252134 -2.031586 18.077546 0.000000 0.000000 0.000000 6.862186 14.516171 9.145932 11.643765 -19.268062 1.983294 19.582516 14.720540 -18.251318 0.000000 0.000000 0.000000 -7.125000 0.000000 0.000000 -8.350161 49.089443 0.847215 0.000000 0.000000 0.000000 -6.949849 10.227914 -5.603192 1.286158 2.226400 -0.024973 -12.656771 29.744368 -5.274257 0.000000 0.000000 0.000000 7.125000 0.000000 0.000000 10.439878 24.575244 5.235898
-3.146248 17.144376 15.605744 -178.822689 -18.778762 -156.313796 0.000000 0.000000 0.000000 -24.829553 -8.297037 -42.295978 2.747973 10.275493 29.873514 2.597239 12.064958 -36.573736 0.805548 5.727643 15.996180 0.000000 0.000000 0.000000 25.691013 2.136091 -1.594079 -0.174858 -2.561104 7.065304 0.364298 -25.044505 -33.029671 -0.215124 -2.986054 8.239898 0.543265 2.369764 -10.204711 -0.079414 2.404496 -7.340572 -0.175811 0.875893 -1.891475 -0.497361 2.498585 -13.225862 1.009757 -1.517161 42.692858 -0.228359 -2.110667 18.225328 0.000000 0.000000 0.000000 7.472658 14.738158 7.694933 11.810723 -19.520167 2.038634 20.158416 14.699432 -19.023848 0.000000 0.000000 0.000000 -7.125000 0.000000 0.000000 -8.022845 49.977852 0.989851 0.000000 0.000000 0.000000 -6.407051 10.603988 -5.842393 1.383738 2.395132 -0.028947 -11.063288 29.827936 -4.391944 0.000000 0.000000 0.000000 7.125000 0.000000 0.000000 11.692637 25.482916 5.631324
-3.169543 17.153314 15.569536 -179.356960 -19.991540 -155.461626 0.000000 0.000000 0.000000 -24.830764 -9.900602 -42.087552 2.690532 10.176461 29.550042 2.771865 11.536461 -37.124470 0.883342 5.991387 16.759355 0.000000 0.000000 0.000000 26.157250 1.844521 -5.987648 -0.632780 -5.087751 14.159518 -0.238174 -24.006132 -35.161270 -0.434698 -4.230645 11.726495 -0.054918 2.243770 -10.512632 -0.508898 2.212061 -7.804920 -0.298840 0.761312 -2.222496 0.399698 2.382520 -12.339958 1.140899 -2.190820 42.752996 -0.454668 -2.257175 18.036484 0.000000 0.000000 0.000000 8.536468 15.160781 5.133648 12.095147 -19.947177 2.134641 20.308775 14.026987 -20.453860 0.000000 0.000000 0.000000 -7.125000 0.000000 0.000000 -8.326090 51.479834 1.336648 0.000000 0.000000 0.000000 -5.385039 11.767217 -6.917895 1.007730 1.744862 -0.015373 -11.266141 28.664682 -5.789281 0.000000 0.000000 0.000000 7.125000 0.000000 0.000000 11.426937 24.086640 5.881374
-3.229165 17.156528 15.486761 -178.971250 -20.236302 -155.925581 0.000000 0.000000 0.000000 -24.308192 -10.288299 -40.944056 2.648843 10.103619 29.313083 3.129572 11.266971 -38.733302 0.845193 5.852763 16.360776 0.000000 0.000000 0.000000 27.070261 0.403120 -7.829519 -1.088788 -6.625482 18.612749 -0.091770 -24.122872 -34.478669 -0.452174 -4.313870 11.961347 -0.108442 1.951030 -10.721903 -0.070827 1.878860 -7.411168 0.165158 0.628437 -1.712815 -0.292301 2.312808 -12.217379 1.368679 -2.129331 42.485656 -0.202250 -2.306088 17.845591 0.000000 0.000000 0.000000 7.778595 14.526562 6.900822 12.016650 -19.829525 2.107973 19.927610 13.704416 -18.230927 0.000000 0.000000 0.000000 -7.125000 0.000000 0.000000 -8.014582 49.121122 0.819499 0.000000 0.000000 0.000000 -5.950065 11.339838 -6.324680 1.206986 2.089519 -0.022162 -9.227017 28.613860 -4.932133 0.000000 0.000000 0.000000 7.125000 0.000000 0.000000 12.999403 24.969302 6.456195
-3.290280 17.164526 15.407704 -179.333104 -20.355965 -156.022963 0.000000 0.000000 0.000000 -24.829350 -10.396439 -39.844541 2.559834 9.945761 28.801451 3.282877 11.525291 -39.621911 0.603315 4.971787 13.828101 0.000000 0.000000 0.000000 27.114913 -1.451985 -9.538214 -1.557359 -7.871262 22.326095 0.080344 -23.650439 -32.798075 -0.235414 -3.113665 8.596000 -0.754028 1.678298 -11.061640 -0.013658 1.616108 -7.033184 0.572683 0.537325 -1.154850 -0.289094 2.343613 -12.362283 1.229287 -2.006523 42.479331 -0.245028 -2.266609 17.875370 0.000000 0.000000 0.000000 7.414613 14.289690 6.731520 12.443995 -20.466898 2.255265 20.131854 13.636737 -21.232959 0.000000 0.000000 0.000000 -7.125000 0.000000 0.000000 -8.769017 52.250321 1.577287 0.000000 0.000000 0.000000 -5.994844 11.235519 -6.101677 1.042037 1.804094 -0.016785 -8.093548 28.150505 -4.891785 0.000000 0.000000 0.000000 7.125000 0.000000 0.000000 13.836930 25.019652 6.878807
-3.338584 17.156564 15.336012 -179.396713 -20.633602 -156.229701 0.000000 0.000000 0.000000 -25.335511 -9.815935 -39.322160 2.481807 9.804708 28.346499 2.643938 13.560978 -37.833873 0.189343 2.775464 7.655958 0.000000 0.000000 0.000000 27.492747 -3.083852 -10.556853 -1.935306 -8.729019 24.951856 0.292405 -22.647252 -29.939398 -0.097208 -2.001938 5.511258 -0.972912 1.796916 -11.255009 -0.294730 1.809211 -6.928486 0.429098 0.639761 -0.942019 -0.721861 2.127944 -12.359645 2.370838 -3.003058 43.116391 0.160003 -2.643294 18.321959 0.000000 0.000000 0.000000 7.911437 14.435322 5.496930 12.901787 -21.143013 2.417839 18.724348 11.273903 -20.163810 0.000000 0.000000 0.000000 -7.125000 0.000000 0.000000 -9.785327 50.916211 1.436058 0.000000 0.000000 0.000000 -5.266560 11.650769 -6.909882 0.875191 1.515416 -0.011562 -7.650469 27.464808 -5.120408 0.000000 0.000000 0.000000 7.125000 0.000000 0.000000 14.137879 24.799709 7.112318
